<?xml version="1.0" encoding="iso-8859-1"?>
<!-- Uploaded to: SVG Repo, www.svgrepo.com, Generator: SVG Repo Mixer Tools -->
<svg fill="#000000" height="800px" width="800px" version="1.1" id="Capa_1" xmlns="http://www.w3.org/2000/svg" xmlns:xlink="http://www.w3.org/1999/xlink" 
	 viewBox="0 0 24.636 24.636" xml:space="preserve">
<g>
	<path d="M21.178,16.558c-0.608,0-1.159,0.229-1.58,0.605L18.3,15.73c0.854-1.097,1.363-2.473,1.363-3.968
		c0-2.361-1.267-4.428-3.157-5.553l1.562-2.777c0.184,0.064,0.381,0.102,0.584,0.102c0.975,0,1.767-0.792,1.767-1.767
		S19.628,0,18.654,0s-1.767,0.793-1.767,1.768c0,0.535,0.238,1.011,0.615,1.338l-1.58,2.796C15.096,5.516,14.173,5.3,13.201,5.3
		c-1.488,0-2.855,0.506-3.948,1.347L7.799,4.806C8.145,4.375,8.357,3.828,8.357,3.23c0-1.396-1.132-2.524-2.524-2.524
		c-1.394,0-2.524,1.129-2.524,2.524s1.13,2.524,2.524,2.524c0.557,0,1.074-0.184,1.491-0.49l1.431,1.814
		C7.514,8.254,6.74,9.918,6.74,11.763c0,0.036,0.003,0.066,0.003,0.1H5.146c-0.241-0.874-1.04-1.514-1.991-1.514
		c-1.145,0-2.069,0.928-2.069,2.068c0,1.145,0.924,2.072,2.069,2.072c1.125,0,2.039-0.901,2.066-2.019h1.558
		c0.262,2.431,1.88,4.455,4.077,5.313l-0.543,1.107c-0.339-0.137-0.71-0.21-1.101-0.21c-1.645,0-2.979,1.331-2.979,2.977
		c0,1.645,1.334,2.979,2.979,2.979c1.648,0,2.979-1.334,2.979-2.979c0-1.037-0.533-1.953-1.338-2.483l0.585-1.194
		c0.56,0.159,1.151,0.245,1.763,0.245c1.852,0,3.522-0.78,4.698-2.031l1.298,1.43c-0.248,0.376-0.394,0.824-0.394,1.309
		c0,1.312,1.063,2.372,2.375,2.372c1.307,0,2.372-1.06,2.372-2.372C23.55,17.622,22.485,16.558,21.178,16.558z"/>
</g>
</svg>